<?xml version="1.0" standalone="no"?>
<!DOCTYPE svg PUBLIC "-//W3C//DTD SVG 20010904//EN"
 "http://www.w3.org/TR/2001/REC-SVG-20010904/DTD/svg10.dtd">
<svg version="1.0" xmlns="http://www.w3.org/2000/svg"
 width="260.000000pt" height="260.000000pt" viewBox="0 0 260.000000 260.000000"
 preserveAspectRatio="xMidYMid meet">
<metadata>
Created by potrace 1.14, written by Peter Selinger 2001-2017
</metadata>
<g transform="translate(0.000000,260.000000) scale(0.100000,-0.100000)"
fill="#000000" stroke="none">
<path d="M1247 2564 c-1 -1 -32 -4 -69 -8 -305 -27 -588 -167 -806 -401 -466
-499 -442 -1292 54 -1765 213 -203 464 -319 749 -346 303 -29 575 40 840 214
90 59 268 237 328 328 238 362 285 779 132 1176 -64 166 -144 287 -280 424
-247 249 -530 369 -893 378 -30 0 -54 0 -55 0z"/>
</g>
</svg>
