<?xml version="1.0" standalone="no"?>
<!DOCTYPE svg PUBLIC "-//W3C//DTD SVG 20010904//EN"
 "http://www.w3.org/TR/2001/REC-SVG-20010904/DTD/svg10.dtd">
<svg version="1.0" xmlns="http://www.w3.org/2000/svg"
 width="466.000000pt" height="466.000000pt" viewBox="0 0 466.000000 466.000000"
 preserveAspectRatio="xMidYMid meet">
<metadata>
Created by potrace 1.14, written by Peter Selinger 2001-2017
</metadata>
<g transform="translate(0.000000,466.000000) scale(0.100000,-0.100000)"
fill="#000000" stroke="none">
<path d="M1784 4595 c2 -5 70 -122 151 -260 81 -137 157 -266 168 -285 10 -19
41 -71 67 -115 26 -44 132 -224 235 -400 104 -176 223 -379 265 -451 l77 -132
-1321 0 c-727 -1 -1344 -1 -1371 -1 l-51 -1 2 -182 c1 -101 2 -185 3 -188 1
-7 4641 -7 4641 0 0 3 -15 27 -33 55 -19 27 -50 75 -69 105 -20 30 -84 129
-143 220 -60 91 -214 327 -343 525 -220 337 -316 483 -533 815 -48 74 -113
173 -143 220 l-55 85 -776 0 c-513 0 -774 -3 -771 -10z"/>
<path d="M11 2070 c-9 -7 -8 -336 1 -346 4 -4 620 -7 1368 -7 796 0 1360 -3
1360 -9 0 -5 -8 -20 -17 -34 -9 -14 -24 -38 -32 -53 -9 -15 -35 -61 -59 -102
-24 -41 -51 -88 -62 -105 -10 -17 -97 -166 -193 -330 -96 -165 -269 -462 -386
-661 -116 -199 -211 -363 -211 -365 0 -2 349 -3 775 -3 l775 0 112 172 c62 95
143 219 179 275 96 148 230 353 324 498 45 69 162 249 260 400 162 249 278
429 387 595 21 33 38 64 36 70 -3 10 -4603 15 -4617 5z"/>
</g>
</svg>
